<?xml version="1.0" encoding="utf-8"?>
<!-- Generator: Adobe Illustrator 27.7.0, SVG Export Plug-In . SVG Version: 6.00 Build 0)  -->
<svg version="1.1" id="Layer_1" xmlns="http://www.w3.org/2000/svg" xmlns:xlink="http://www.w3.org/1999/xlink" x="0px" y="0px"
	 viewBox="0 0 64 114" style="enable-background:new 0 0 64 114;" xml:space="preserve">
<path d="M0.5,63.2c0.1,1.1,0.1,1.1,0.2,2.2l-0.3,1l0,0l0,0c-0.6,2,0.4,4.4,0.2,6.5l0,0c0.9,8.6,0.1,18.3,1,25.9
	c-1.8,0.9-1.5,11.4,0.3,12.7c9.6,2.4,20.9,3.1,31.5,2.1c14.1-0.7,35.3,4,29.6-9.4l0,0l0,0c1.6-8.1-1.4-16.4,0-24.7
	c1.6-1.3,0.3-2.9,0.1-4.4L62.9,74c0.1-1.1,0.1-0.9,0.3-2l0,0c-0.6-19.1,0.5-38.1-0.7-58.2C62.8-0.3,67.2,1.5,42.8,0c0,0,0,0,0.1,0
	c-10.8,0.5-21.3,1.3-32,1l0,0C8-0.4,5.3-0.2,2.8,2l0,0c-2.3,2.5-1.2,5.4-1.7,8.1C0.9,15.8,1,22.6,0.7,28.2
	C2.9,39.8-1.4,52.1,0.5,63.2z"/>
</svg>
