<?xml version="1.0" encoding="utf-8"?>
<!-- Generator: Adobe Illustrator 27.7.0, SVG Export Plug-In . SVG Version: 6.00 Build 0)  -->
<svg version="1.1" id="Layer_1" xmlns="http://www.w3.org/2000/svg" xmlns:xlink="http://www.w3.org/1999/xlink" x="0px" y="0px"
	 viewBox="0 0 64 190" style="enable-background:new 0 0 64 190;" xml:space="preserve">
<path d="M63.1,84.7c-0.1-1.8-0.2-3.6-0.3-5.5c0,0,0.4,0.2,0.4,0.2c0,0,0,0,0,0c0,0,0,0,0,0l0,0c0.6-3.3-0.4-7.3-0.2-10.8
	c0,0,0,0,0,0c-1-12,0.3-24.2-1.1-36.3c-0.4-2,2.3-3.1,0.1-5c0,0-0.1-1.1,0-1.8c0,0,0,0,0,0c1.7-2.2,1.3-4.8,0.7-7.6
	c0-4.8,1.4-9.1-1-13.5l0,0c-9.5-4-20.8-5.2-31.3-3.6c0,0,0,0,0,0C16.3,2.1-4.8-5.7,1,16.6h0c0,0,0,0,0,0c-0.4,2.9-1.1,8.1,0.1,10.8
	c-0.7,4.1-0.7,8.5,0.1,12.5c0.1,5.9,0.4,12-0.2,17.9v0c-1.6,2.2-0.3,4.9-0.1,7.4l0.4-0.2c-0.1,1.8-0.2,3.5-0.4,5.3h0c0,0,0,0,0,0
	c-2.8,10.6,3,21.3,0.5,32.2c-0.7,21-0.8,42.7,0.2,64.7c-0.4,23.4-4.6,20.4,19.6,22.8c0,0,0,0-0.1,0c9.2-1,18.1-1.3,27.3-1.9
	c1.3,0.4,3.1,0.2,4.5,0.4l0,0c0,0,0,0,0,0c2.9,2.4,5.6,2,8-1.7c0,0,0,0,0,0c0,0,0,0,0,0c2.3-4.1,1.2-9,1.7-13.5c0,0,0,0,0,0
	c0.2-6.2,0.1-12.1,0.2-18.3c0,0,0-0.6,0-0.6l0.2-11c0,0,0-0.3,0-0.2c-0.9-12.2-0.6-24.6,0.2-36.8C62.2,98.9,65.5,91.5,63.1,84.7z"/>
</svg>
