<?xml version="1.0" encoding="utf-8"?>
<!-- Generator: Adobe Illustrator 27.7.0, SVG Export Plug-In . SVG Version: 6.00 Build 0)  -->
<svg version="1.1" id="Layer_1" xmlns="http://www.w3.org/2000/svg" xmlns:xlink="http://www.w3.org/1999/xlink" x="0px" y="0px"
	 viewBox="0 0 64 190" style="enable-background:new 0 0 64 190;" xml:space="preserve">
<path d="M63.8,147.9c-0.1-2,0.6-4.4-0.1-4.7c-2.6-1.2-6.4,0-9.6-1.3c-0.1-0.4-0.3-0.8-0.4-1.1c0,0,0,0,0,0c0-1.2,0.1-2.3,0.1-3.5
	c0,0,0,0,0,0c0,0,0,0,0,0c0.1-1.6,0.1-3.3,0.2-4.9c4.9-1.5,8.9,1.3,8.6-5.3c0.2-42,0.9-84.3,0-126.1c-0.1,0-0.3-0.3-0.4-0.3
	C42-0.7,21.1,0.6,0.7,0.3c-1.7,43.2,0.1,86.9,0,130.3c3.1,0.3,6.6-0.6,9.2,1.4c0,3.5,0.1,7.2,0.1,10.6c-2.5,0-4.7,0-7,0
	c-0.8,0.2-1.6,0.6-2.5,0.9c-0.2,3-0.6,6.1,0.3,9c1.7,0.1,3.5,0.2,5.4,0.2c6.9,10.4,13.7,20.5,19.6,31.4c0.7,1.1,1.5,2.2,2.2,3.3
	c0,0,0,0,0,0c0.6,1,1.2,2,1.6,2.6c4.9,0.1,5-3.4,6.4-6c4.2-4.1,6.5-9.5,9.8-14.3c0,0,0,0,0,0c4.5-5.1,11.8-17.1,11.8-17.1
	s6.5-0.3,6.5-0.3C63.9,151.2,63.6,149.3,63.8,147.9z"/>
</svg>
